<?xml version="1.0" encoding="utf-8"?>
<!-- Svg Vector Icons : http://www.onlinewebfonts.com/icon -->
<!DOCTYPE svg PUBLIC "-//W3C//DTD SVG 1.1//EN" "http://www.w3.org/Graphics/SVG/1.1/DTD/svg11.dtd">
<svg version="1.1" xmlns="http://www.w3.org/2000/svg" xmlns:xlink="http://www.w3.org/1999/xlink" x="0px" y="0px" viewBox="0 0 1000 1000" enable-background="new 0 0 1000 1000" xml:space="preserve">
<metadata> Svg Vector Icons : http://www.onlinewebfonts.com/icon </metadata>
<g><path d="M10,500C10,229.8,229.8,10,500,10c270.2,0,490,219.8,490,490c0,270.2-219.8,490-490,490C229.8,990,10,770.2,10,500L10,500L10,500z M920,500c0-231.6-188.4-420-420-420C268.4,80,80,268.4,80,500c0,231.6,188.4,420,420,420C731.6,920,920,731.6,920,500L920,500L920,500z M558.7,699.6l175.3-173.4c10.4-10.2,13-25.3,7.8-38c-0.3-0.8-1.1-1.4-1.5-2.2c-1.6-3.3-3.4-6.5-6.1-9.2c0,0-0.1,0-0.1-0.1c0,0,0-0.1-0.1-0.1L560.2,302.2c-13.6-13.7-35.8-13.7-49.5-0.1c-6.9,6.8-10.3,15.8-10.3,24.8c0,8.9,3.4,17.9,10.2,24.7l113,113.3H290c-19.4,0-35,15.7-35,35c0,19.3,15.6,35,35,35h335.5L509.5,649.8c-6.9,6.8-10.4,15.9-10.4,24.9c0,8.9,3.4,17.8,10.1,24.6C522.7,713,544.9,713.2,558.7,699.6L558.7,699.6L558.7,699.6z"/></g>
</svg>